<?xml version="1.0"?>
<svg xmlns="http://www.w3.org/2000/svg" xmlns:xlink="http://www.w3.org/1999/xlink" version="1.1" id="Layer_1" x="0px" y="0px" viewBox="0 0 512 512" style="enable-background:new 0 0 512 512;" xml:space="preserve" width="512px" height="512px"><g><g>
	<path d="M256,256c5.52,0,10-4.48,10-10s-4.48-10-10-10s-10,4.48-10,10S250.48,256,256,256z" data-original="#000000" class="active-path" data-old_color="#000000" fill="#F35314"/>
	<path d="M482,96c-16.542,0-30,13.458-30,30v150h-76c-16.542,0-30,13.458-30,30c0,19.149,0,113.451,0,130h-20v-10   c0-16.542-13.458-30-30-30h-10V296h10c16.542,0,30-13.458,30-30v-10h56c16.542,0,30-13.458,30-30v-10h10c5.522,0,10-4.478,10-10   s-4.478-10-10-10H298.808l6.894-27.574c0.747-2.988,0.076-6.152-1.819-8.58C301.987,157.419,299.079,156,296,156h-30v-21.266   c17.233-4.452,30-20.13,30-38.734c0-22.056-17.944-40-40-40s-40,17.944-40,40c0,18.604,12.767,34.282,30,38.734V156h-30   c-3.079,0-5.987,1.419-7.882,3.846c-1.896,2.428-2.566,5.592-1.819,8.58L213.192,196H90c-5.522,0-10,4.478-10,10s4.478,10,10,10h10   v10c0,16.542,13.458,30,30,30h56v10c0,16.542,13.458,30,30,30h10v100h-10c-16.542,0-30,13.458-30,30v10h-20   c0-16.538,0-110.846,0-130c0-16.542-13.458-30-30-30H60V126c0-16.542-13.458-30-30-30S0,109.458,0,126c0,11.684,0,308.326,0,320   c0,5.522,4.478,10,10,10h492c5.522,0,10-4.478,10-10c0-16.902,0-305.826,0-320C512,109.458,498.542,96,482,96z M236,96   c0-11.028,8.972-20,20-20s20,8.972,20,20s-8.972,20-20,20S236,107.028,236,96z M472,126c0-5.514,4.486-10,10-10s10,4.486,10,10v150   h-20V126z M366,306c0-5.514,4.486-10,10-10h116v20H366V306z M228.808,176h54.385l-5,20h-44.385L228.808,176z M206,266v-10h10   c5.522,0,10-4.478,10-10s-4.478-10-10-10h-86c-5.514,0-10-4.486-10-10v-10c7.248,0,263.533,0,272,0v10c0,5.514-4.486,10-10,10h-86   c-5.522,0-10,4.478-10,10s4.478,10,10,10h10v10c0,5.514-4.486,10-10,10h-80C210.486,276,206,271.514,206,266z M246,296h20v100h-20   V296z M206,426c0-5.514,4.486-10,10-10h80c5.514,0,10,4.486,10,10v10H206V426z M146,306v10H20v-20h116   C141.514,296,146,300.486,146,306z M30,116c5.514,0,10,4.486,10,10v150H20V126C20,120.486,24.486,116,30,116z M20,336h126v100H20   V336z M366,436V336h126v100H366z" data-original="#000000" class="active-path" data-old_color="#000000" fill="#F35314"/>
</g></g> </svg>
