<?xml version="1.0"?>
<svg xmlns="http://www.w3.org/2000/svg" viewBox="0 0 512 512" width="512px" height="512px" class=""><g><title class="active-path" style="">DJ</title><g id="DJ"><g id="Outline"><path d="M255.39,196.939a7.986,7.986,0,0,0-.74-1.379,7.589,7.589,0,0,0-2.21-2.21,8.032,8.032,0,0,0-1.38-.741,7.919,7.919,0,0,0-1.5-.449,7.8,7.8,0,0,0-3.12,0,7.919,7.919,0,0,0-1.5.449,8.032,8.032,0,0,0-1.38.741,7.589,7.589,0,0,0-2.21,2.21,7.986,7.986,0,0,0-.74,1.379,7.893,7.893,0,0,0-.45,1.5,7.69,7.69,0,0,0,0,3.121,7.8,7.8,0,0,0,1.19,2.879,7.728,7.728,0,0,0,.99,1.221,8.369,8.369,0,0,0,1.22.989,8.032,8.032,0,0,0,1.38.741,7.85,7.85,0,0,0,1.5.45,7.685,7.685,0,0,0,3.12,0,7.85,7.85,0,0,0,1.5-.45,8.032,8.032,0,0,0,1.38-.741,8.369,8.369,0,0,0,1.22-.989,7.728,7.728,0,0,0,.99-1.221,7.8,7.8,0,0,0,1.19-2.879,7.69,7.69,0,0,0,0-3.121A7.893,7.893,0,0,0,255.39,196.939Z" data-original="#000000" class="active-path" fill="#F35314"/><path d="M312,208a7.443,7.443,0,0,0,1.56-.16,7.85,7.85,0,0,0,1.5-.45,8.032,8.032,0,0,0,1.38-.741,8.369,8.369,0,0,0,1.22-.989A8.052,8.052,0,0,0,320,200a7.452,7.452,0,0,0-.16-1.561,7.893,7.893,0,0,0-.45-1.5,7.986,7.986,0,0,0-.74-1.379,7.766,7.766,0,0,0-.99-1.22,8.015,8.015,0,0,0-11.32,0,8.375,8.375,0,0,0-.99,1.22,7.986,7.986,0,0,0-.74,1.379,7.893,7.893,0,0,0-.45,1.5A7.452,7.452,0,0,0,304,200a7.989,7.989,0,0,0,8,8Z" data-original="#000000" class="active-path" fill="#F35314"/><path d="M504,432H480v-8a8,8,0,0,0-16,0v7.667H448V424a8,8,0,0,0-16,0v7.667H416V424a8,8,0,0,0-16,0v7.667H352V416h2.081a32,32,0,0,0,31.238-38.941l-19.941-89.736A39.762,39.762,0,0,0,326.331,256H304v-8h8a40.052,40.052,0,0,0,36.657-24.016,43.992,43.992,0,0,0,3.343-87.8V128a40.045,40.045,0,0,0-40-40H232c-17.8,0-25.8-1.125-33.344-12.437L196.281,72H176v40a39.906,39.906,0,0,0,13.672,30.075,44.265,44.265,0,0,0-8.782,6.815,43.739,43.739,0,0,0-11.347,19.535,49.63,49.63,0,0,0-41.466,36.462l-16.742,63.23a45.824,45.824,0,0,0,7.682,39.443A46.327,46.327,0,0,0,160.6,325.75l.549-.057,23.3-5.716a7.954,7.954,0,0,0,2.86-.7L208,314.2V376a8,8,0,0,0,16,0V314.2a16,16,0,0,0-19.812-15.539L192,301.651V282.572L219.816,272h42.315a23.956,23.956,0,0,0,35.738,0h28.462a23.858,23.858,0,0,1,23.428,18.794L359.805,336H342.246l-6.485-25.94a8,8,0,1,0-15.522,3.88L333.754,368H296a40.068,40.068,0,0,0-39.195,32H240a16.019,16.019,0,0,0-16,16v15.667H208V416a16.019,16.019,0,0,0-16-16H96a16.019,16.019,0,0,0-16,16v15.667H32V432H8a8,8,0,0,0,0,16H32v56a8,8,0,0,0,16,0V448H464v56a8,8,0,0,0,16,0V448h24a8,8,0,0,0,0-16ZM352,152.3a27.988,27.988,0,0,1,0,55.4ZM192,92.549C202.83,103.047,215.78,104,232,104h80a24.028,24.028,0,0,1,24,24v8H216a24.028,24.028,0,0,1-24-24ZM208,152.3v55.4a27.988,27.988,0,0,1,0-55.4ZM176,305.576l-17.553,4.307a30.242,30.242,0,0,1-26.631-11.923,29.917,29.917,0,0,1-5.014-25.747l16.741-63.231a33.615,33.615,0,0,1,22.468-23.461l-16.862,87.218a16,16,0,0,0,21.065,18.114l5.786-2.2ZM256,256H216.878l-52.02,19.776L177.98,207.9q1.368,1.661,2.91,3.205a43.7,43.7,0,0,0,30.453,12.875A40.052,40.052,0,0,0,248,248h8Zm32-8v8a8,8,0,0,1-16,0v-8a16.019,16.019,0,0,0-16-16h-8a24.027,24.027,0,0,1-24-24V152H336v56a24.027,24.027,0,0,1-24,24h-8A16.019,16.019,0,0,0,288,248ZM192,431.667H96V416h96Zm144,0H240V416h96ZM344,400H273.376A24.039,24.039,0,0,1,296,384h37.754a16,16,0,0,0,15.522-19.881L346.247,352h16.1a8.015,8.015,0,0,0,1-.069l6.355,28.6A16,16,0,0,1,354.081,400H344Z" data-original="#000000" class="active-path" fill="#F35314"/><path d="M496,0H432a16.019,16.019,0,0,0-16,16V64H392a24,24,0,0,0,0,48h16a24.027,24.027,0,0,0,24-24V48h64V64H472a24,24,0,0,0,0,48h16a24.027,24.027,0,0,0,24-24V16A16.019,16.019,0,0,0,496,0ZM416,88a8.009,8.009,0,0,1-8,8H392a8,8,0,0,1,0-16h24Zm80,0a8.009,8.009,0,0,1-8,8H472a8,8,0,0,1,0-16h24Zm0-56H432V16h64Z" data-original="#000000" class="active-path" fill="#F35314"/><path d="M456,248h16a24.027,24.027,0,0,0,24-24V152a8,8,0,0,0-16,0v48H456a24,24,0,0,0,0,48Zm0-32h24v8a8.009,8.009,0,0,1-8,8H456a8,8,0,0,1,0-16Z" data-original="#000000" class="active-path" fill="#F35314"/><path d="M61.729,105.671l2.271.672,2.271-.672C68.792,104.925,128,86.861,128,40.4,128,18.123,110.28,0,88.5,0A38.428,38.428,0,0,0,64,8.852,38.428,38.428,0,0,0,39.5,0C17.72,0,0,18.123,0,40.4,0,86.861,59.208,104.925,61.729,105.671ZM39.5,16a23.048,23.048,0,0,1,18.186,9.178L64,33.292l6.314-8.114A23.048,23.048,0,0,1,88.5,16C101.458,16,112,26.946,112,40.4c0,30.222-38.2,45.7-48.01,49.17C54.167,86.117,16,70.74,16,40.4,16,26.946,26.542,16,39.5,16Z" data-original="#000000" class="active-path" fill="#F35314"/><circle cx="64" cy="200" r="8" data-original="#000000" class="active-path" fill="#F35314"/><circle cx="64" cy="232" r="8" data-original="#000000" class="active-path" fill="#F35314"/><circle cx="64" cy="136" r="8" data-original="#000000" class="active-path" fill="#F35314"/><circle cx="64" cy="168" r="8" data-original="#000000" class="active-path" fill="#F35314"/><circle cx="96" cy="152" r="8" data-original="#000000" class="active-path" fill="#F35314"/><circle cx="96" cy="184" r="8" data-original="#000000" class="active-path" fill="#F35314"/><circle cx="96" cy="120" r="8" data-original="#000000" class="active-path" fill="#F35314"/><circle cx="32" cy="120" r="8" data-original="#000000" class="active-path" fill="#F35314"/><circle cx="32" cy="184" r="8" data-original="#000000" class="active-path" fill="#F35314"/><circle cx="32" cy="152" r="8" data-original="#000000" class="active-path" fill="#F35314"/></g></g></g> </svg>
