<?xml version="1.0"?>
<svg xmlns="http://www.w3.org/2000/svg" id="Layer_1" enable-background="new 0 0 128 128" height="512px" viewBox="0 0 128 128" width="512px" class=""><g><g fill="#fd852b"><path d="m93.1 84.7c-1.4 0-2.4-1.1-2.4-2.4s1.1-2.4 2.4-2.4 2.4 1.1 2.4 2.4c0 1.3-1.1 2.4-2.4 2.4z" data-original="#000000" class=""/><path d="m93.1 94.1c-1.4 0-2.4-1.1-2.4-2.4s1.1-2.4 2.4-2.4 2.4 1.1 2.4 2.4c0 1.4-1.1 2.4-2.4 2.4z" data-original="#000000" class=""/><path d="m88.4 89.4c-1.4 0-2.4-1.1-2.4-2.4s1.1-2.4 2.4-2.4 2.4 1.1 2.4 2.4c0 1.3-1.1 2.4-2.4 2.4z" data-original="#000000" class=""/><path d="m97.8 89.4c-1.4 0-2.4-1.1-2.4-2.4s1.1-2.4 2.4-2.4 2.4 1.1 2.4 2.4c0 1.3-1.1 2.4-2.4 2.4z" data-original="#000000" class=""/><path d="m15.3 12.6c-1.4 0-2.4-1.1-2.4-2.4 0-1.4 1.1-2.4 2.4-2.4s2.4 1.1 2.4 2.4c0 1.3-1.1 2.4-2.4 2.4z" data-original="#000000" class=""/><path d="m15.3 22.1c-1.4 0-2.4-1.1-2.4-2.4 0-1.4 1.1-2.4 2.4-2.4s2.4 1.1 2.4 2.4c0 1.3-1.1 2.4-2.4 2.4z" data-original="#000000" class=""/><path d="m10.6 17.4c-1.4 0-2.4-1.1-2.4-2.4s1.1-2.4 2.4-2.4 2.4 1.1 2.4 2.4c0 1.3-1.1 2.4-2.4 2.4z" data-original="#000000" class=""/><path d="m20 17.4c-1.4 0-2.4-1.1-2.4-2.4s1.1-2.4 2.4-2.4c1.4 0 2.4 1.1 2.4 2.4.1 1.3-1 2.4-2.4 2.4z" data-original="#000000" class=""/></g><path d="m111 17.4h5.9v5.9h-5.9z" fill="#2ec3fc" transform="matrix(.707 -.707 .707 .707 18.992 86.516)" data-original="#2EC3FC" class="" data-old_color="#2ec3fc" style="fill:#F3581B"/><path d="m38.5 103.9h5.9v5.9h-5.9z" fill="#f9d12f" transform="matrix(.707 -.707 .707 .707 -63.435 60.606)" data-original="#F9D12F" class="" data-old_color="#f9d12f" style="fill:#F3581B"/><path d="m24.2 120.3c-1 0-1.8-.8-1.8-1.8v-87.7c0-1 .8-1.8 1.8-1.8s1.8.8 1.8 1.8v87.7c-.1 1-.8 1.8-1.8 1.8z" fill="#feded6" data-original="#FEDED6" class="active-path" data-old_color="#feded6" style="fill:#F3581B"/><path d="m94.6 39.4c-9.3-2.6-16.7-2.4-22.6-.1-1.2-2.6-2-7.2 3.9-10.9-2.8-.7-5.7-.7-8.5 0 0-3.4.4-6.7 1.2-10l-6-5.3-6 5.3c.7 3.3 1.1 6.6 1.2 10-2.8-.7-5.7-.7-8.5 0 5.9 3.7 5 8.3 3.9 10.9-5.9-2.3-13.3-2.5-22.6.1-8.1 2.2-13.7-4.9-13.7-4.9-.1 43.8 38.7 33.5 38.7 33.5 3.5 3.5 6.9 3.1 6.9 3.1s3.5.4 6.9-3.1c0 0 38.9 10.2 38.9-33.6.1 0-5.6 7.2-13.7 5zm-66.8 9.2c4.5-.2 8.9-1.1 13.1-2.7 9.1-3.3 14.3 8.8 14.3 8.8-17.3 14.5-27.4-6.1-27.4-6.1zm42.2 6.2s5.1-12.1 14.2-8.8c4.2 1.6 8.6 2.5 13.1 2.7.1-.1-10.1 20.5-27.3 6.1z" fill="#fd748c" data-original="#FD748C" class="" style="fill:#F3581B" data-old_color="#fd748c"/></g> </svg>
