<?xml version="1.0"?>
<svg xmlns="http://www.w3.org/2000/svg" id="Line_Expand" enable-background="new 0 0 64 64" height="512px" viewBox="0 0 64 64" width="512px"><g><path d="m59 40h-15v-2h-2v24h-20v-30h20v4h2v-5c0-.553-.447-1-1-1h-8v-14h6v5c0 .553.447 1 1 1h16c.36 0 .692-.193.87-.507s.173-.699-.013-1.008l-2.718-4.529 2.755-5.509c.155-.31.139-.678-.044-.973s-.503-.474-.85-.474h-7v-6c0-.553-.447-1-1-1h-15.613l-.439-1.316c-.136-.409-.517-.684-.948-.684h-2c-.431 0-.812.275-.949.684l-1 3c-.034.102-.051.209-.051.316v26h-8c-.552 0-1 .447-1 1v9h-15c-.552 0-1 .447-1 1v22c0 .553.448 1 1 1h54c.553 0 1-.447 1-1v-22c0-.553-.447-1-1-1zm-2.618-29-2.276 4.553c-.152.306-.139.669.037.962l2.09 3.485h-13.233v-4h7c.553 0 1-.447 1-1v-4zm-7.382-7v10h-14v-10zm-18 .162.721-2.162h.559l.72 2.162v25.838h-2zm-25 37.838h14v20h-14zm52 20h-14v-20h14z" data-original="#000000" class="active-path" data-old_color="#000000" fill="#F35314"/><path d="m54 48h2v8h-2z" data-original="#000000" class="active-path" data-old_color="#000000" fill="#F35314"/><path d="m54 44h2v2h-2z" data-original="#000000" class="active-path" data-old_color="#000000" fill="#F35314"/><path d="m54 58h2v2h-2z" data-original="#000000" class="active-path" data-old_color="#000000" fill="#F35314"/><path d="m8 48h2v8h-2z" data-original="#000000" class="active-path" data-old_color="#000000" fill="#F35314"/><path d="m8 44h2v2h-2z" data-original="#000000" class="active-path" data-old_color="#000000" fill="#F35314"/><path d="m8 58h2v2h-2z" data-original="#000000" class="active-path" data-old_color="#000000" fill="#F35314"/><path d="m33.6 49c.441 0 .831-.29.958-.713l.386-1.287h.056c2.757 0 5-2.243 5-5v-2c0-.553-.447-1-1-1h-2v-2c0-.553-.447-1-1-1h-8c-.552 0-1 .447-1 1v2h-2c-.552 0-1 .447-1 1v2c0 2.757 2.243 5 5 5h.056l.386 1.287c.127.423.516.713.958.713h.6v3h-2c-.552 0-1 .447-1 1v4c0 .553.448 1 1 1h6c.553 0 1-.447 1-1v-4c0-.553-.447-1-1-1h-2v-3zm.4 7h-4v-2h4zm4-14c0 1.463-1.053 2.684-2.44 2.947l1.184-3.947h1.256zm-12 0v-1h1.256l1.184 3.947c-1.388-.263-2.44-1.484-2.44-2.947zm3-2.146v-1.854h6v1.854l-2.145 7.146h-1.711z" data-original="#000000" class="active-path" data-old_color="#000000" fill="#F35314"/></g> </svg>
