<?xml version="1.0" encoding="UTF-8" standalone="no"?>
<svg
   xmlns:dc="http://purl.org/dc/elements/1.1/"
   xmlns:cc="http://creativecommons.org/ns#"
   xmlns:rdf="http://www.w3.org/1999/02/22-rdf-syntax-ns#"
   xmlns:svg="http://www.w3.org/2000/svg"
   xmlns="http://www.w3.org/2000/svg"
   xmlns:sodipodi="http://sodipodi.sourceforge.net/DTD/sodipodi-0.dtd"
   xmlns:inkscape="http://www.inkscape.org/namespaces/inkscape"
   height="488pt"
   viewBox="-4 0 488 488"
   width="488pt"
   version="1.1"
   id="svg12"
   sodipodi:docname="receptionist.svg"
   inkscape:version="0.92.4 (unknown)">
  <metadata
     id="metadata18">
    <rdf:RDF>
      <cc:Work
         rdf:about="">
        <dc:format>image/svg+xml</dc:format>
        <dc:type
           rdf:resource="http://purl.org/dc/dcmitype/StillImage" />
        <dc:title></dc:title>
      </cc:Work>
    </rdf:RDF>
  </metadata>
  <defs
     id="defs16" />
  <sodipodi:namedview
     pagecolor="#ffffff"
     bordercolor="#666666"
     borderopacity="1"
     objecttolerance="10"
     gridtolerance="10"
     guidetolerance="10"
     inkscape:pageopacity="0"
     inkscape:pageshadow="2"
     inkscape:window-width="1366"
     inkscape:window-height="715"
     id="namedview14"
     showgrid="false"
     inkscape:zoom="0.36270492"
     inkscape:cx="325.33333"
     inkscape:cy="325.33333"
     inkscape:window-x="0"
     inkscape:window-y="27"
     inkscape:window-maximized="1"
     inkscape:current-layer="svg12" />
  <path
     d="m472 376h-16v-72c-.082031-54.285156-41.878906-99.386719-96-103.59375v-20.582031c15.261719-10.238281 26.042969-25.910157 30.144531-43.824219h1.855469c13.253906 0 24-10.746094 24-24s-10.746094-24-24-24v-80c0-4.417969-3.582031-8-8-8h-128c-4.417969 0-8 3.582031-8 8v80c-13.253906 0-24 10.746094-24 24s10.746094 24 24 24h1.855469c4.101562 17.914062 14.882812 33.585938 30.144531 43.824219v20.582031c-54.121094 4.207031-95.917969 49.308594-96 103.59375v72h-176c-4.417969 0-8 3.582031-8 8v32c0 4.417969 3.582031 8 8 8h16v56c0 4.417969 3.582031 8 8 8h416c4.417969 0 8-3.582031 8-8v-56h16c4.417969 0 8-3.582031 8-8v-32c0-4.417969-3.582031-8-8-8zm-32-72v72h-32v-72h-16v72h-64v-28.078125l68.910156-53.601563c1.824219-1.410156 2.949219-3.535156 3.089844-5.832031.144531-2.296875-.710938-4.546875-2.34375-6.167969l-9.105469-9.105468 15.890625-10.582032c3.207032-2.140624 4.429688-6.265624 2.910156-9.808593l-10.398437-24.390625c26.664063 15.839844 43.015625 44.550781 43.046875 75.566406zm-171.558594-38.65625-18.472656-12.3125 14.398438-33.726562c2.503906-.695313 5.039062-1.304688 7.632812-1.785157l-6.695312 10.039063c-1.472657 2.191406-1.773438 4.964844-.800782 7.417968l35.199219 83.128907-39.664063-30.859375 9.601563-9.597656c1.695313-1.695313 2.539063-4.058594 2.304687-6.445313-.234374-2.382813-1.527343-4.535156-3.519531-5.867187zm121.597656-12.3125-18.472656 12.3125c-1.992187 1.332031-3.285156 3.484375-3.519531 5.867188-.234375 2.386718.609375 4.75 2.304687 6.445312l9.601563 9.601562-39.664063 30.855469 35.199219-83.128906c.972657-2.453125.671875-5.226563-.800781-7.417969l-6.6875-10.046875c2.59375.480469 5.128906 1.089844 7.632812 1.785157zm-101.453124-31.488281 20 25.007812-17.042969 12.800781-10.558594-26.398437zm62.828124 0 7.59375 11.394531-10.558593 26.398438-17.042969-12.800782zm-31.414062 36.457031 22.105469 16.566406-22.105469 49.738282-22.105469-49.738282zm80-146c0 4.417969-3.582031 8-8 8v-16c4.417969 0 8 3.582031 8 8zm-136-96h112v48h-112zm110.527344 64c-3.378906 9.554688-12.394532 15.957031-22.527344 16h-64c-10.132812-.042969-19.148438-6.445312-22.527344-16zm-134.527344 32c0-4.417969 3.582031-8 8-8v16c-4.417969 0-8-3.582031-8-8zm24 8v-16.207031c6.882812 5.292969 15.316406 8.175781 24 8.207031h64c8.683594-.03125 17.117188-2.914062 24-8.207031v16.207031c0 30.929688-25.070312 56-56 56s-56-25.070312-56-56zm56 72c8.179688-.015625 16.300781-1.4375 24-4.199219v17.390625l-24 30.007813-24-30v-17.398438c7.699219 2.761719 15.820312 4.183594 24 4.199219zm-120 112c.039062-31.015625 16.410156-59.714844 43.089844-75.535156l-10.441406 24.382812c-1.519532 3.542969-.296876 7.667969 2.910156 9.808594l15.890625 10.582031-9.105469 9.105469c-1.632812 1.625-2.488281 3.871094-2.34375 6.167969.140625 2.296875 1.265625 4.421875 3.089844 5.832031l68.910156 53.578125v28.078125h-64v-72h-16v72h-32zm240 168h-400v-48h400zm24-64h-448v-16h448zm0 0"
     id="path2"
     style="fill:#f35314;fill-opacity:0.94117647" />
  <path
     d="m24 160h76.6875l45.65625 45.65625c2.289062 2.285156 5.730469 2.972656 8.71875 1.734375s4.9375-4.15625 4.9375-7.390625v-40h24c13.253906 0 24-10.746094 24-24v-112c0-13.253906-10.746094-24-24-24h-160c-13.253906 0-24 10.746094-24 24v112c0 13.253906 10.746094 24 24 24zm-8-136c0-4.417969 3.582031-8 8-8h160c4.417969 0 8 3.582031 8 8v112c0 4.417969-3.582031 8-8 8h-32c-4.417969 0-8 3.582031-8 8v28.6875l-34.34375-34.34375c-1.5-1.5-3.535156-2.34375-5.65625-2.34375h-80c-4.417969 0-8-3.582031-8-8zm0 0"
     id="path4"
     style="fill:#f35314;fill-opacity:0.94117647" />
  <flowRoot
     xml:space="preserve"
     id="flowRoot828"
     style="fill:black;fill-opacity:1;stroke:none;font-family:sans-serif;font-style:normal;font-weight:normal;font-size:40px;line-height:1.25;letter-spacing:0px;word-spacing:0px"><flowRegion
       id="flowRegion830"><rect
         id="rect832"
         width="209.53673"
         height="157.15254"
         x="60.655369"
         y="44.112995" /></flowRegion><flowPara
       id="flowPara834"></flowPara></flowRoot>  <path
     style="stroke-width:0.70690441;fill:#f35313;fill-opacity:0.94117647"
     inkscape:connector-curvature="0"
     d="m 86.957618,45.322027 h -22.69491 c -6.26659,0 -11.34746,5.0478 -11.34746,11.27361 v 11.27361 h 11.34746 v -11.27361 h 22.69491 v 22.54722 h -22.69491 c -6.26659,0 -11.34746,5.0478 -11.34746,11.2736 v 22.547223 c 0,6.2258 5.08087,11.2736 11.34746,11.2736 h 34.04237 v -11.2736 H 64.262708 V 90.416457 h 22.69491 c 6.26659,0 11.34746,-5.0478 11.34746,-11.2736 v -22.54722 c 0,-6.22581 -5.08087,-11.27361 -11.34746,-11.27361 z m 0,0"
     id="path4-3" />
  <path
     style="stroke-width:0.75574863;fill:#f35313;fill-opacity:0.94117647"
     inkscape:connector-curvature="0"
     d="m 112.61111,92.779656 h 24.64783 v 35.593224 h 12.32392 V 92.779656 h 12.32392 v -11.8644 h -12.32392 v -35.59322 h -12.32392 v 35.59322 h -18.48587 v -35.59322 h -12.32392 v 41.52542 c 0,3.27603 2.75904,5.9322 6.16196,5.9322 z m 0,0"
     id="path6" />
</svg>
