<?xml version="1.0" encoding="UTF-8" standalone="no"?>
<svg
   xmlns:dc="http://purl.org/dc/elements/1.1/"
   xmlns:cc="http://creativecommons.org/ns#"
   xmlns:rdf="http://www.w3.org/1999/02/22-rdf-syntax-ns#"
   xmlns:svg="http://www.w3.org/2000/svg"
   xmlns="http://www.w3.org/2000/svg"
   xmlns:sodipodi="http://sodipodi.sourceforge.net/DTD/sodipodi-0.dtd"
   xmlns:inkscape="http://www.inkscape.org/namespaces/inkscape"
   height="512"
   viewBox="0 0 64 64"
   width="512"
   version="1.1"
   id="svg34"
   sodipodi:docname="safe-box.svg"
   inkscape:version="0.92.4 (unknown)">
  <metadata
     id="metadata40">
    <rdf:RDF>
      <cc:Work
         rdf:about="">
        <dc:format>image/svg+xml</dc:format>
        <dc:type
           rdf:resource="http://purl.org/dc/dcmitype/StillImage" />
      </cc:Work>
    </rdf:RDF>
  </metadata>
  <defs
     id="defs38" />
  <sodipodi:namedview
     pagecolor="#ffffff"
     bordercolor="#666666"
     borderopacity="1"
     objecttolerance="10"
     gridtolerance="10"
     guidetolerance="10"
     inkscape:pageopacity="0"
     inkscape:pageshadow="2"
     inkscape:window-width="746"
     inkscape:window-height="480"
     id="namedview36"
     showgrid="false"
     inkscape:zoom="0.4609375"
     inkscape:cx="133.60777"
     inkscape:cy="256"
     inkscape:window-x="0"
     inkscape:window-y="27"
     inkscape:window-maximized="0"
     inkscape:current-layer="svg34" />
  <path
     d="m59 7h-54a3 3 0 0 0 -3 3v40a3 3 0 0 0 3 3h2v3a1 1 0 0 0 1 1h10a1 1 0 0 0 1-1v-3h26v3a1 1 0 0 0 1 1h10a1 1 0 0 0 1-1v-3h2a3 3 0 0 0 3-3v-40a3 3 0 0 0 -3-3zm-42 48h-8v-2h8zm38 0h-8v-2h8zm5-5a1 1 0 0 1 -1 1h-54a1 1 0 0 1 -1-1v-40a1 1 0 0 1 1-1h54a1 1 0 0 1 1 1z"
     id="path2"
     style="fill:#f35314;fill-opacity:0.94117647" />
  <path
     d="m57 17h-3v-3a1 1 0 0 0 -1-1h-45a1 1 0 0 0 -1 1v32a1 1 0 0 0 1 1h45a1 1 0 0 0 1-1v-3h3a1 1 0 0 0 1-1v-8a1 1 0 0 0 -1-1h-3v-6h3a1 1 0 0 0 1-1v-8a1 1 0 0 0 -1-1zm-1 4h-7v-2h7zm-4 16h-3v-14h3zm-5 2h-10v-18h10zm5 6h-43v-30h43v2h-4a1 1 0 0 0 -1 1v1h-11a1 1 0 0 0 -1 1v20a1 1 0 0 0 1 1h11v1a1 1 0 0 0 1 1h4zm4-4h-7v-2h7zm0-6v2h-2v-2zm0-10h-2v-2h2z"
     id="path4"
     style="fill:#f35314;fill-opacity:0.94117647" />
  <path
     d="m22 19a11 11 0 1 0 11 11 11.013 11.013 0 0 0 -11-11zm0 20a9 9 0 1 1 9-9 9.011 9.011 0 0 1 -9 9z"
     id="path6"
     style="fill:#f35314;fill-opacity:0.94117647" />
  <path
     d="m25 25v-2h-2v2h-2v-2h-2v2h-2v2h2v6h-2v2h2v2h2v-2h2v2h2v-2a2.987 2.987 0 0 0 2.22-5 2.987 2.987 0 0 0 -2.22-5zm1 3a1 1 0 0 1 -1 1h-4v-2h4a1 1 0 0 1 1 1zm-1 5h-4v-2h4a1 1 0 0 1 0 2z"
     id="path8"
     style="fill:#f35314;fill-opacity:0.94117647" />
  <path
     d="m43 23h2v2h-2z"
     id="path10"
     style="fill:#f35314;fill-opacity:0.94117647" />
  <path
     d="m43 27h2v2h-2z"
     id="path12"
     style="fill:#f35314;fill-opacity:0.94117647" />
  <path
     d="m43 31h2v2h-2z"
     id="path14"
     style="fill:#f35314;fill-opacity:0.94117647" />
  <path
     d="m43 35h2v2h-2z"
     id="path16"
     style="fill:#f35314;fill-opacity:0.94117647" />
  <path
     d="m39 23h2v2h-2z"
     id="path18"
     style="fill:#f35314;fill-opacity:0.94117647" />
  <path
     d="m39 27h2v2h-2z"
     id="path20"
     style="fill:#f35314;fill-opacity:0.94117647" />
  <path
     d="m39 31h2v2h-2z"
     id="path22"
     style="fill:#f35314;fill-opacity:0.94117647" />
  <path
     d="m39 35h2v2h-2z"
     id="path24"
     style="fill:#f35314;fill-opacity:0.94117647" />
  <path
     d="m13 19h2v-2h-4v4h2z"
     id="path26"
     style="fill:#f35314;fill-opacity:0.94117647" />
  <path
     d="m13 39h-2v4h4v-2h-2z"
     id="path28"
     style="fill:#f35314;fill-opacity:0.94117647" />
  <path
     d="m56 11h2v2h-2z"
     id="path30"
     style="fill:#f35314;fill-opacity:0.94117647" />
  <path
     d="m56 47h2v2h-2z"
     id="path32"
     style="fill:#f35314;fill-opacity:0.94117647" />
</svg>
