<?xml version="1.0"?>
<svg xmlns="http://www.w3.org/2000/svg" xmlns:xlink="http://www.w3.org/1999/xlink" version="1.1" id="Capa_1" x="0px" y="0px" viewBox="0 0 511.998 511.998" style="enable-background:new 0 0 511.998 511.998;" xml:space="preserve" width="512px" height="512px"><g><g>
	<g>
		<path d="M496.999,270.989H282.421c1.665-4.695,2.58-9.742,2.58-15c0-24.813-20.187-45-45-45h-45.249l-17.764-60.076    c0.998,0.05,2.002,0.076,3.013,0.076c33.084,0,60-26.916,60-60s-26.916-60-60-60s-60,26.916-60,60    c0,11.127,3.055,21.55,8.355,30.492c-19.289,2.913-34.624,17.778-37.798,37.424L61.251,305.451    c-2.078,8.62-1.564,17.439,1.316,25.538H45.003c-8.271,0-15-6.729-15-15V135.99c0-8.284-6.716-15-15-15s-15,6.716-15,15v179.999    c0,18.321,11.011,34.108,26.758,41.122L0.451,462.35c-2.009,8.037,2.877,16.181,10.914,18.19    c8.044,2.009,16.182-2.882,18.19-10.914l27.159-108.637c16.82,0,64.814,0,81.576,0l27.159,108.637    c2.009,8.037,10.151,12.923,18.19,10.914c8.037-2.009,12.923-10.153,10.914-18.19l-25.341-101.361h35.654l21.478,85.925    c6.128,24.461,30.792,38.714,54.572,32.734c24.065-6.011,38.754-30.491,32.744-54.578l-30.001-120.003    c-0.348-1.39-0.764-2.748-1.233-4.078h78.574v164.999c0,8.284,6.716,15,15,15c8.284,0,15-6.716,15-15V300.989h105.999    c8.284,0,15-6.716,15-15S505.283,270.989,496.999,270.989z M180.002,60.991c16.542,0,30,13.458,30,30s-13.458,30-30,30    s-30-13.458-30-30S163.46,60.991,180.002,60.991z M130.601,151.669c6.434-1.993,13.7,0.575,17.32,6.735l21.242,71.839    c1.884,6.373,7.738,10.747,14.384,10.747h56.455v-0.001c8.271,0,15,6.729,15,15s-6.729,15-15,15h-74.999    c-5.423,0-10.326-2.855-13-7.508c-31.926-95.778-29.723-89.388-30.419-90.781C117.406,164.345,121.85,154.336,130.601,151.669z     M284.554,432.34c2.005,8.034-2.888,16.199-10.931,18.208c-7.878,1.983-16.123-2.722-18.176-10.917l-24.316-97.279    c-1.669-6.678-7.669-11.363-14.552-11.363c-49.949,0-60.714,0-111.576,0c-9.75,0-16.92-9.179-14.554-18.642    c0.132-0.53,17.236-86.094,17.343-86.63l16.145,48.434c0.884,2.649,3.214,6.3,4.863,8.547c-0.238,1.06-0.374,2.159-0.374,3.291    c0,8.284,6.716,15,15,15c4.549,0,73.253,0,96.576,0c6.894,0.001,12.88,4.673,14.553,11.359L284.554,432.34z" data-original="#000000" class="active-path" data-old_color="#000000" fill="#F35314"/>
	</g>
</g></g> </svg>
