<?xml version="1.0"?>
<svg xmlns="http://www.w3.org/2000/svg" height="512px" viewBox="0 -20 480.00044 480" width="512px"><g><path d="m360 128.1875h-24v-24c-.035156-12.640625-6.0625-24.511719-16.246094-32 17.773438-13.117188 21.546875-38.160156 8.429688-55.9375-13.117188-17.773438-38.160156-21.550781-55.9375-8.429688-17.773438 13.117188-21.546875 38.160157-8.429688 55.933594 2.375 3.21875 5.214844 6.0625 8.429688 8.433594-10.183594 7.488281-16.210938 19.359375-16.246094 32v24h-32v-24c-.035156-12.640625-6.0625-24.511719-16.246094-32 17.773438-13.117188 21.546875-38.160156 8.429688-55.9375-13.117188-17.773438-38.160156-21.550781-55.9375-8.429688-17.773438 13.117188-21.550782 38.160157-8.429688 55.933594 2.371094 3.21875 5.214844 6.0625 8.429688 8.433594-10.183594 7.488281-16.210938 19.359375-16.246094 32v24h-32v-24c-.035156-12.640625-6.066406-24.511719-16.25-32 17.777344-13.117188 21.550781-38.160156 8.433594-55.9375-13.117188-17.773438-38.160156-21.550781-55.9375-8.429688-17.777344 13.117188-21.550782 38.160157-8.433594 55.933594 2.375 3.21875 5.21875 6.0625 8.433594 8.433594-10.183594 7.488281-16.214844 19.359375-16.25 32v24h-23.996094c-4.417969 0-8 3.582031-8 8v208c0 4.417969 3.582031 8 8 8h32.207031c2.289063 3.035156 4.996094 5.726562 8.039063 8-10.183594 7.488281-16.210938 19.359375-16.246094 32v40c0 4.417969 3.582031 8 8 8h64c4.417969 0 8-3.582031 8-8v-40c-.035156-12.640625-6.0625-24.511719-16.246094-32 3.042969-2.273438 5.75-4.964844 8.039063-8h48.414062c2.277344 3.03125 4.96875 5.726562 8 8-10.167969 7.496094-16.179687 19.367188-16.207031 32v40c0 4.417969 3.582031 8 8 8h64c4.417969 0 8-3.582031 8-8v-40c-.035156-12.640625-6.0625-24.511719-16.246094-32 3.027344-2.273438 5.722656-4.96875 8-8h48.414063c2.273437 3.03125 4.96875 5.726562 8 8-10.152344 7.503906-16.152344 19.375-16.167969 32v40c0 4.417969 3.582031 8 8 8h64c4.417969 0 8-3.582031 8-8v-40c-.035156-12.640625-6.0625-24.511719-16.246094-32 3.027344-2.273438 5.722656-4.96875 8-8h32.246094c4.417969 0 8-3.582031 8-8v-208c0-4.417969-3.582031-8-8-8zm-88-88c0-13.253906 10.746094-24 24-24s24 10.746094 24 24-10.746094 24-24 24-24-10.746094-24-24zm0 64c0-13.253906 10.746094-24 24-24s24 10.746094 24 24v24h-48zm-112-64c0-13.253906 10.746094-24 24-24s24 10.746094 24 24-10.746094 24-24 24-24-10.746094-24-24zm0 64c0-13.253906 10.746094-24 24-24s24 10.746094 24 24v24h-48zm-112-64c0-13.253906 10.746094-24 24-24s24 10.746094 24 24-10.746094 24-24 24-24-10.746094-24-24zm0 64c0-13.253906 10.746094-24 24-24s24 10.746094 24 24v24h-48zm48 288v32h-48v-32c0-13.253906 10.746094-24 24-24s24 10.746094 24 24zm-24-40c-13.253906 0-24-10.746094-24-24s10.746094-24 24-24 24 10.746094 24 24-10.746094 24-24 24zm136 40v32h-48v-32c0-13.253906 10.746094-24 24-24s24 10.746094 24 24zm-24-40c-13.253906 0-24-10.746094-24-24s10.746094-24 24-24 24 10.746094 24 24-10.746094 24-24 24zm136 40v32h-48v-32c0-13.253906 10.746094-24 24-24s24 10.746094 24 24zm-24-40c-13.253906 0-24-10.746094-24-24s10.746094-24 24-24 24 10.746094 24 24-10.746094 24-24 24zm56-16h-16.800781c4.398437-21.648438-9.589844-42.761719-31.238281-47.160156-21.652344-4.394532-42.765626 9.589844-47.160157 31.242187-1.066406 5.25-1.066406 10.664063 0 15.917969h-33.601562c4.398437-21.648438-9.589844-42.761719-31.238281-47.160156-21.652344-4.394532-42.765626 9.589844-47.160157 31.242187-1.066406 5.25-1.066406 10.664063 0 15.917969h-33.601562c4.398437-21.648438-9.589844-42.761719-31.238281-47.160156-21.652344-4.394532-42.765626 9.589844-47.160157 31.242187-1.066406 5.25-1.066406 10.664063 0 15.917969h-16.800781v-192h336zm0 0" data-original="#000000" class="active-path" data-old_color="#000000" fill="#F35314"/><path d="m463.753906 216.1875c10.183594-7.488281 16.210938-19.359375 16.246094-32 .101562-22.089844-17.722656-40.082031-39.816406-40.183594-22.089844-.101562-40.082032 17.722656-40.183594 39.816406-.058594 12.761719 5.976562 24.789063 16.246094 32.367188-10.183594 7.488281-16.210938 19.359375-16.246094 32v40c0 4.417969 3.582031 8 8 8h64c4.417969 0 8-3.582031 8-8v-40c-.035156-12.640625-6.0625-24.511719-16.246094-32zm-47.753906-32c0-13.253906 10.746094-24 24-24s24 10.746094 24 24-10.746094 24-24 24-24-10.746094-24-24zm48 96h-48v-32c0-13.253906 10.746094-24 24-24s24 10.746094 24 24zm0 0" data-original="#000000" class="active-path" data-old_color="#000000" fill="#F35314"/><path d="m104 160.1875h-64c-4.417969 0-8 3.582031-8 8v32c0 4.417969 3.582031 8 8 8h64c4.417969 0 8-3.582031 8-8v-32c0-4.417969-3.582031-8-8-8zm-8 32h-48v-16h48zm0 0" data-original="#000000" class="active-path" data-old_color="#000000" fill="#F35314"/><path d="m216 160.1875h-64c-4.417969 0-8 3.582031-8 8v32c0 4.417969 3.582031 8 8 8h64c4.417969 0 8-3.582031 8-8v-32c0-4.417969-3.582031-8-8-8zm-8 32h-48v-16h48zm0 0" data-original="#000000" class="active-path" data-old_color="#000000" fill="#F35314"/><path d="m328 160.1875h-64c-4.417969 0-8 3.582031-8 8v32c0 4.417969 3.582031 8 8 8h64c4.417969 0 8-3.582031 8-8v-32c0-4.417969-3.582031-8-8-8zm-8 32h-48v-16h48zm0 0" data-original="#000000" class="active-path" data-old_color="#000000" fill="#F35314"/><path d="m104 224.1875h-64c-4.417969 0-8 3.582031-8 8v32c0 4.417969 3.582031 8 8 8h64c4.417969 0 8-3.582031 8-8v-32c0-4.417969-3.582031-8-8-8zm-8 32h-48v-16h48zm0 0" data-original="#000000" class="active-path" data-old_color="#000000" fill="#F35314"/><path d="m216 224.1875h-64c-4.417969 0-8 3.582031-8 8v32c0 4.417969 3.582031 8 8 8h64c4.417969 0 8-3.582031 8-8v-32c0-4.417969-3.582031-8-8-8zm-8 32h-48v-16h48zm0 0" data-original="#000000" class="active-path" data-old_color="#000000" fill="#F35314"/><path d="m328 224.1875h-64c-4.417969 0-8 3.582031-8 8v32c0 4.417969 3.582031 8 8 8h64c4.417969 0 8-3.582031 8-8v-32c0-4.417969-3.582031-8-8-8zm-8 32h-48v-16h48zm0 0" data-original="#000000" class="active-path" data-old_color="#000000" fill="#F35314"/></g> </svg>
