<?xml version="1.0" encoding="UTF-8" standalone="no"?>
<svg
   xmlns:dc="http://purl.org/dc/elements/1.1/"
   xmlns:cc="http://creativecommons.org/ns#"
   xmlns:rdf="http://www.w3.org/1999/02/22-rdf-syntax-ns#"
   xmlns:svg="http://www.w3.org/2000/svg"
   xmlns="http://www.w3.org/2000/svg"
   xmlns:sodipodi="http://sodipodi.sourceforge.net/DTD/sodipodi-0.dtd"
   xmlns:inkscape="http://www.inkscape.org/namespaces/inkscape"
   height="482pt"
   viewBox="0 0 482 482.66151"
   width="482pt"
   version="1.1"
   id="svg14"
   sodipodi:docname="room-service.svg"
   inkscape:version="0.92.4 (unknown)">
  <metadata
     id="metadata20">
    <rdf:RDF>
      <cc:Work
         rdf:about="">
        <dc:format>image/svg+xml</dc:format>
        <dc:type
           rdf:resource="http://purl.org/dc/dcmitype/StillImage" />
      </cc:Work>
    </rdf:RDF>
  </metadata>
  <defs
     id="defs18" />
  <sodipodi:namedview
     pagecolor="#ffffff"
     bordercolor="#666666"
     borderopacity="1"
     objecttolerance="10"
     gridtolerance="10"
     guidetolerance="10"
     inkscape:pageopacity="0"
     inkscape:pageshadow="2"
     inkscape:window-width="1366"
     inkscape:window-height="715"
     id="namedview16"
     showgrid="false"
     inkscape:zoom="0.36721992"
     inkscape:cx="-126.62712"
     inkscape:cy="321.33333"
     inkscape:window-x="0"
     inkscape:window-y="27"
     inkscape:window-maximized="1"
     inkscape:current-layer="svg14" />
  <path
     d="m331.402344 88.664062-5.910156 14.863282c20.582031 7.644531 38.707031 20.730468 52.4375 37.863281l12.648437-9.757813c-15.472656-19.417968-35.925781-34.269531-59.175781-42.96875zm0 0"
     id="path2"
     style="fill:#f35314;fill-opacity:0.94117647" />
  <path
     d="m401.730469 148.960938-14.160157 7.460937c2.609376 4.957031 4.828126 10.109375 6.632813 15.410156l15.144531-5.175781c-2.082031-6.085938-4.628906-12.003906-7.617187-17.695312zm0 0"
     id="path4"
     style="fill:#f35314;fill-opacity:0.94117647" />
  <path
     d="m54.730469 243.632812c13.632812 18.085938 34.949219 28.742188 57.601562 28.796876h256c22.648438-.054688 43.964844-10.710938 57.597657-28.796876l26.402343-35.203124h28v-16h-32.203125c-3.863281-86.070313-70.292968-141.933594-177.300781-150.734376 4.183594-13.164062-.550781-27.527343-11.742187-35.625-11.191407-8.09375-26.316407-8.09375-37.507813 0-11.195313 8.097657-15.929687 22.460938-11.742187 35.625-107.007813 8.800782-173.441407 64.664063-177.304688 150.734376h-32.199219v16h28zm358.398437-9.601562c-10.601562 14.066406-27.183594 22.355469-44.796875 22.398438h-256c-17.617187-.042969-34.195312-8.332032-44.800781-22.398438l-19.199219-25.601562h384zm-188.796875-201.601562c0-8.835938 7.164063-16 16-16 8.835938 0 16 7.164062 16 16 0 2.921874-.808593 5.78125-2.34375 8.265624-4.496093-.160156-9.035156-.265624-13.65625-.265624-4.625 0-9.160156.105468-13.65625.265624-1.535156-2.484374-2.347656-5.34375-2.34375-8.265624zm16 24c90.4375 0 186.878907 35.945312 191.765625 136h-383.535156c4.886719-100.054688 101.367188-136 191.769531-136zm0 0"
     id="path6"
     style="fill:#f35314;fill-opacity:0.94117647" />
  <path
     d="m477.25 287.632812c-8.910156-15.214843-28.398438-20.433593-43.71875-11.714843l-68.273438 39.394531c-1.488281-3.535156-3.628906-6.757812-6.3125-9.496094-5.980468-6.023437-14.125-9.402344-22.613281-9.386718h-120c-1.363281 0-2.699219.347656-3.890625 1.007812l-52.910156 29.441406-8.921875-24.496094c-1.503906-4.15625-6.089844-6.304687-10.246094-4.800781l-75.199219 27.359375c-2 .722656-3.628906 2.210938-4.527343 4.132813-.902344 1.925781-1 4.128906-.273438 6.125l2.734375 7.511719-52.597656 19.167968c-2 .722656-3.628906 2.207032-4.527344 4.132813-.902344 1.925781-1 4.125-.273437 6.125l38.328125 105.246093c1.503906 4.15625 6.09375 6.304688 10.246094 4.800782l52.632812-19.152344 2.738281 7.511719c1.5 4.15625 6.089844 6.304687 10.246094 4.800781l75.199219-27.367188c4.15625-1.503906 6.304687-6.09375 4.800781-10.25l-1.960937-5.296874h90.402343c1.402344 0 2.78125-.367188 4-1.070313l173.199219-100c9.953125-5.671875 16.070312-16.273437 16-27.726563-.007812-5.617187-1.480469-11.132812-4.28125-16zm-420.917969 176.796876-32.800781-90.207032 45.101562-16.414062 32.84375 90.207031zm65.597657-6.847657-43.765626-120.351562 60.132813-21.894531 43.777344 120.296874zm335.601562-140.078125-171.34375 98.925782h-94.082031l-27.046875-74.320313 53.34375-29.679687h117.929687c4.242188-.007813 8.316407 1.683593 11.300781 4.699218 1.730469 1.71875 3.023438 3.828125 3.769532 6.148438.640625 1.640625.957031 3.390625.929687 5.152344 0 8.839843-7.164062 16-16 16h-88v16h88c16.152344-.050782 29.726563-12.15625 31.613281-28.199219l73.546876-42.449219c4.949218-2.855469 11.046874-2.855469 15.996093 0s8 8.136719 8.003907 13.851562c.039062 5.71875-3 11.019532-7.960938 13.871094zm0 0"
     id="path12"
     style="fill:#f35314;fill-opacity:0.94117647" />
</svg>
