<?xml version="1.0" encoding="UTF-8" standalone="no"?>
<svg
   xmlns:dc="http://purl.org/dc/elements/1.1/"
   xmlns:cc="http://creativecommons.org/ns#"
   xmlns:rdf="http://www.w3.org/1999/02/22-rdf-syntax-ns#"
   xmlns:svg="http://www.w3.org/2000/svg"
   xmlns="http://www.w3.org/2000/svg"
   xmlns:sodipodi="http://sodipodi.sourceforge.net/DTD/sodipodi-0.dtd"
   xmlns:inkscape="http://www.inkscape.org/namespaces/inkscape"
   height="512pt"
   viewBox="-41 0 512 512"
   width="512pt"
   version="1.1"
   id="svg4"
   sodipodi:docname="shower.svg"
   inkscape:version="0.92.4 (unknown)">
  <metadata
     id="metadata10">
    <rdf:RDF>
      <cc:Work
         rdf:about="">
        <dc:format>image/svg+xml</dc:format>
        <dc:type
           rdf:resource="http://purl.org/dc/dcmitype/StillImage" />
      </cc:Work>
    </rdf:RDF>
  </metadata>
  <defs
     id="defs8" />
  <sodipodi:namedview
     pagecolor="#ffffff"
     bordercolor="#666666"
     borderopacity="1"
     objecttolerance="10"
     gridtolerance="10"
     guidetolerance="10"
     inkscape:pageopacity="0"
     inkscape:pageshadow="2"
     inkscape:window-width="746"
     inkscape:window-height="480"
     id="namedview6"
     showgrid="false"
     inkscape:zoom="0.34570313"
     inkscape:cx="341.33333"
     inkscape:cy="341.33333"
     inkscape:window-x="0"
     inkscape:window-y="27"
     inkscape:window-maximized="0"
     inkscape:current-layer="svg4" />
  <path
     d="m395.6875 210.417969c1.464844 1.464843 3.386719 2.195312 5.304688 2.195312 1.917968 0 3.839843-.730469 5.304687-2.195312 2.929687-2.929688 2.929687-7.679688 0-10.605469l-19.222656-19.222656c-2.929688-2.929688-7.675781-2.929688-10.605469 0-2.929688 2.929687-2.929688 7.679687 0 10.609375zm-57.1875 4.6875c-2.929688-2.929688-7.679688-2.929688-10.605469 0-2.929687 2.929687-2.929687 7.679687 0 10.605469l19.21875 19.222656c1.464844 1.464844 3.386719 2.199218 5.304688 2.199218 1.921875 0 3.839843-.734374 5.304687-2.199218 2.929688-2.929688 2.929688-7.675782 0-10.605469zm-30.425781 48.789062c-2.929688-2.929687-7.679688-2.929687-10.605469 0-2.929688 2.929688-2.929688 7.675781 0 10.605469l19.21875 19.222656c1.464844 1.464844 3.386719 2.195313 5.304688 2.195313 1.917968 0 3.839843-.730469 5.304687-2.195313 2.929687-2.929687 2.929687-7.679687 0-10.609375zm72.230469 9.609375c-2.929688-2.929687-7.675782-2.929687-10.605469 0-2.929688 2.929688-2.929688 7.675782 0 10.605469l19.222656 19.222656c1.464844 1.464844 3.382813 2.195313 5.300781 2.195313 1.921875 0 3.839844-.730469 5.304688-2.195313 2.929687-2.929687 2.929687-7.679687 0-10.605469zm47.742187-15.363281-19.21875-19.222656c-2.929687-2.929688-7.679687-2.929688-10.609375 0-2.929688 2.929687-2.929688 7.679687 0 10.605469l19.222656 19.222656c1.464844 1.464844 3.382813 2.195312 5.304688 2.195312 1.917968 0 3.839844-.730468 5.304687-2.195312 2.925781-2.929688 2.925781-7.679688-.003906-10.605469zm-48.640625 63.300781c-2.929688-2.929687-7.679688-2.929687-10.605469 0-2.929687 2.925782-2.929687 7.675782 0 10.605469l19.21875 19.21875c1.464844 1.464844 3.386719 2.199219 5.304688 2.199219s3.839843-.734375 5.304687-2.199219c2.929688-2.925781 2.929688-7.675781 0-10.605469zm-15.003906-209.628906-4.089844-4.085938c-7.949219-7.949218-20.15625-9.0625-29.324219-3.382812l-2.789062-2.789062c-8.15625-8.15625-18.933594-13.570313-30.347657-15.242188-15.382812-2.257812-31.085937 2.347656-42.84375 12.355469l-11.417968-11.421875c-16.023438-16.015625-37.320313-24.839844-59.972656-24.839844h-45.046876c-2.121093-10.273438-11.238281-18.019531-22.132812-18.019531h-13.644531v-14.976563c.003906-16.21875-13.191407-29.410156-29.40625-29.410156h-43.976563c-16.21875 0-29.410156 13.191406-29.410156 29.410156v453.179688c0 16.21875 13.191406 29.410156 29.410156 29.410156h43.976563c16.214843 0 29.410156-13.191406 29.410156-29.410156v-11.273438c0-4.140625-3.359375-7.5-7.5-7.5-4.144531 0-7.5 3.359375-7.5 7.5v11.273438c0 7.945312-6.464844 14.410156-14.410156 14.410156h-43.976563c-7.945312 0-14.410156-6.464844-14.410156-14.410156v-241.207032h72.796875v194.289063c0 4.140625 3.355469 7.5 7.5 7.5 4.140625 0 7.5-3.359375 7.5-7.5v-100.058594h14.953125c.429688 10.992188 9.484375 19.8125 20.582031 19.8125h9.867188c11.375 0 20.625-9.25 20.625-20.625v-48.472656c0-11.375-9.25-20.625-20.625-20.625h-9.867188c-11.097656 0-20.152343 8.820313-20.582031 19.8125h-14.953125v-157.082031h13.644531c10.894532 0 20.007813-7.75 22.128906-18.023438h45.046876c9.832031 0 19.078124 3.828125 26.027343 10.78125l11.421875 11.421875c-10.007812 11.757813-14.613281 27.460938-12.355468 42.839844 1.671874 11.414063 7.085937 22.191406 15.242187 30.351563l2.769531 2.769531c-2.320312 3.726562-3.5625 8.027343-3.5625 12.527343 0 6.351563 2.472656 12.320313 6.960938 16.8125l4.089844 4.089844c4.636718 4.636719 10.726562 6.953125 16.816406 6.953125s12.179687-2.316406 16.8125-6.953125l66.050781-66.050781c2.929687-2.929687 2.929687-7.679687 0-10.609375s-7.675781-2.929688-10.605469 0l-66.050781 66.050781c-1.660156 1.660157-3.863281 2.574219-6.207031 2.574219-2.347656 0-4.550782-.914062-6.207032-2.574219l-4.089843-4.085937c-3.425781-3.425782-3.425781-8.996094 0-12.417969l95.101562-95.101563 1.460938-1.457031c3.421875-3.425781 8.992187-3.421875 12.414062-.003906l4.089844 4.09375c1.65625 1.65625 2.570313 3.859375 2.570313 6.207031 0 2.34375-.914063 4.546875-2.570313 6.207032l-5.722656 5.71875c-2.929688 2.929687-2.929688 7.679687 0 10.605468 2.929687 2.929688 7.679687 2.929688 10.605469 0l5.722656-5.71875c4.492187-4.492187 6.964844-10.464844 6.964844-16.816406-.003907-6.347656-2.476563-12.320312-6.964844-16.8125zm-276.605469 114.570312h-72.796875v-49.875h72.796875zm0-64.875h-72.796875v-132.097656c0-7.945312 6.464844-14.410156 14.410156-14.410156h43.976563c7.945312 0 14.410156 6.464844 14.410156 14.410156zm44.910156 124.820313c0-3.101563 2.523438-5.625 5.625-5.625h9.867188c3.105469 0 5.625 2.523437 5.625 5.625v48.472656c0 3.101563-2.519531 5.625-5.625 5.625h-9.867188c-3.101562 0-5.625-2.523437-5.625-5.625zm-15 14.1875v20.097656h-14.910156v-20.097656zm6.328125-194.675781c0 4.1875-3.40625 7.59375-7.59375 7.59375h-13.644531v-54.050782h13.644531c4.1875 0 7.59375 3.40625 7.59375 7.597657zm96.21875 4.746094c-9.785156-9.785157-22.796875-15.175782-36.636718-15.175782h-44.582032v-18.003906h44.582032c18.644531 0 36.179687 7.261719 49.363281 20.449219l11.285156 11.28125-12.730469 12.730469zm16.632813 86.9375-2.328125-2.328126c-5.890625-5.890624-9.800782-13.675781-11.007813-21.917968-1.78125-12.125 2.332031-24.542969 11-33.210938l27.914063-27.914062c8.667968-8.664063 21.085937-12.78125 33.210937-11 8.242188 1.210937 16.027344 5.121094 21.917969 11.011718l2.328125 2.324219zm0 0"
     id="path2"
     style="fill:#f35314;fill-opacity:0.94117647" />
</svg>
