<?xml version="1.0" encoding="UTF-8" standalone="no"?>
<!-- Generator: Adobe Illustrator 19.0.0, SVG Export Plug-In . SVG Version: 6.00 Build 0)  -->

<svg
   xmlns:dc="http://purl.org/dc/elements/1.1/"
   xmlns:cc="http://creativecommons.org/ns#"
   xmlns:rdf="http://www.w3.org/1999/02/22-rdf-syntax-ns#"
   xmlns:svg="http://www.w3.org/2000/svg"
   xmlns="http://www.w3.org/2000/svg"
   xmlns:sodipodi="http://sodipodi.sourceforge.net/DTD/sodipodi-0.dtd"
   xmlns:inkscape="http://www.inkscape.org/namespaces/inkscape"
   version="1.1"
   id="Capa_1"
   x="0px"
   y="0px"
   viewBox="0 0 512 512"
   style="enable-background:new 0 0 512 512;"
   xml:space="preserve"
   sodipodi:docname="tv.svg"
   inkscape:version="0.92.4 (unknown)"><metadata
   id="metadata79"><rdf:RDF><cc:Work
       rdf:about=""><dc:format>image/svg+xml</dc:format><dc:type
         rdf:resource="http://purl.org/dc/dcmitype/StillImage" /></cc:Work></rdf:RDF></metadata><defs
   id="defs77" /><sodipodi:namedview
   pagecolor="#ffffff"
   bordercolor="#666666"
   borderopacity="1"
   objecttolerance="10"
   gridtolerance="10"
   guidetolerance="10"
   inkscape:pageopacity="0"
   inkscape:pageshadow="2"
   inkscape:window-width="746"
   inkscape:window-height="480"
   id="namedview75"
   showgrid="false"
   inkscape:zoom="0.4609375"
   inkscape:cx="557.64464"
   inkscape:cy="256"
   inkscape:window-x="0"
   inkscape:window-y="27"
   inkscape:window-maximized="0"
   inkscape:current-layer="Capa_1" />
<g
   id="g6"
   style="fill:#f35314;fill-opacity:0.94117647">
	<g
   id="g4"
   style="fill:#f35314;fill-opacity:0.94117647">
		<path
   d="M177.74,29.93c-1.86-1.86-4.44-2.93-7.07-2.93c-2.64,0-5.21,1.07-7.07,2.93c-1.86,1.86-2.93,4.44-2.93,7.07    s1.07,5.21,2.93,7.07c1.86,1.86,4.43,2.93,7.07,2.93c2.63,0,5.21-1.07,7.07-2.93c1.86-1.86,2.93-4.44,2.93-7.07    S179.6,31.79,177.74,29.93z"
   id="path2"
   style="fill:#f35314;fill-opacity:0.94117647" />
	</g>
</g>
<g
   id="g12"
   style="fill:#f35314;fill-opacity:0.94117647">
	<g
   id="g10"
   style="fill:#f35314;fill-opacity:0.94117647">
		<path
   d="M502,27H213.333c-5.523,0-10,4.477-10,10s4.477,10,10,10H492v81.851L309.594,311.255c-3.905,3.905-3.905,10.237,0,14.143    c1.953,1.952,4.512,2.929,7.071,2.929s5.119-0.977,7.071-2.929L492,157.135V371H20V47h107c5.523,0,10-4.477,10-10s-4.477-10-10-10    H10C4.477,27,0,31.477,0,37v344c0,5.523,4.477,10,10,10h172v34h-58c-5.523,0-10,4.477-10,10v30H57.154c-5.523,0-10,4.477-10,10    s4.477,10,10,10h361.889c5.523,0,10-4.477,10-10s-4.477-10-10-10H398v-30c0-5.523-4.477-10-10-10h-58v-34h172    c5.523,0,10-4.477,10-10V37C512,31.477,507.523,27,502,27z M202,391h108v34H202V391z M378,445v20H134v-20h58h128H378z"
   id="path8"
   style="fill:#f35314;fill-opacity:0.94117647" />
	</g>
</g>
<g
   id="g18"
   style="fill:#f35314;fill-opacity:0.94117647">
	<g
   id="g16"
   style="fill:#f35314;fill-opacity:0.94117647">
		<path
   d="M177.359,114.92c-3.905-3.906-10.236-3.904-14.143,0L74.71,203.426c-3.905,3.905-3.905,10.237,0,14.143    c1.953,1.953,4.512,2.929,7.071,2.929s5.119-0.977,7.071-2.929l88.507-88.506C181.264,125.157,181.265,118.825,177.359,114.92z"
   id="path14"
   style="fill:#f35314;fill-opacity:0.94117647" />
	</g>
</g>
<g
   id="g24"
   style="fill:#f35314;fill-opacity:0.94117647">
	<g
   id="g22"
   style="fill:#f35314;fill-opacity:0.94117647">
		<path
   d="M60.61,231.67c-1.86-1.86-4.44-2.93-7.07-2.93s-5.21,1.07-7.07,2.93c-1.86,1.86-2.93,4.43-2.93,7.07    c0,2.63,1.07,5.21,2.93,7.07c1.86,1.86,4.44,2.93,7.07,2.93s5.21-1.07,7.07-2.93c1.86-1.86,2.93-4.44,2.93-7.07    S62.47,233.53,60.61,231.67z"
   id="path20"
   style="fill:#f35314;fill-opacity:0.94117647" />
	</g>
</g>
<g
   id="g30"
   style="fill:#f35314;fill-opacity:0.94117647">
	<g
   id="g28"
   style="fill:#f35314;fill-opacity:0.94117647">
		<path
   d="M461.92,467.93c-1.86-1.86-4.44-2.93-7.07-2.93c-2.64,0-5.21,1.07-7.07,2.93c-1.87,1.86-2.93,4.44-2.93,7.07    s1.06,5.21,2.93,7.07c1.85,1.86,4.43,2.93,7.07,2.93c2.63,0,5.21-1.07,7.07-2.93c1.86-1.86,2.93-4.44,2.93-7.07    S463.78,469.79,461.92,467.93z"
   id="path26"
   style="fill:#f35314;fill-opacity:0.94117647" />
	</g>
</g>
<g
   id="g36"
   style="fill:#f35314;fill-opacity:0.94117647">
	<g
   id="g34"
   style="fill:#f35314;fill-opacity:0.94117647">
		<path
   d="M235.704,161.994h-56c-5.523,0-10,4.477-10,10c0,5.523,4.477,10,10,10h18V256c0,5.523,4.477,10,10,10    c5.523,0,10-4.477,10-10v-74.006h18c5.523,0,10-4.477,10-10C245.704,166.471,241.227,161.994,235.704,161.994z"
   id="path32"
   style="fill:#f35314;fill-opacity:0.94117647" />
	</g>
</g>
<g
   id="g42"
   style="fill:#f35314;fill-opacity:0.94117647">
	<g
   id="g40"
   style="fill:#f35314;fill-opacity:0.94117647">
		<path
   d="M335.458,162.507c-5.239-1.745-10.903,1.084-12.649,6.325l-18.513,55.543l-18.513-55.543    c-1.746-5.239-7.411-8.07-12.649-6.325c-5.239,1.746-8.071,7.409-6.325,12.649l28,84.006c1.361,4.084,5.183,6.838,9.487,6.838    c4.304,0,8.126-2.754,9.487-6.838l28-84.006C343.53,169.916,340.698,164.253,335.458,162.507z"
   id="path38"
   style="fill:#f35314;fill-opacity:0.94117647" />
	</g>
</g>
<g
   id="g44">
</g>
<g
   id="g46">
</g>
<g
   id="g48">
</g>
<g
   id="g50">
</g>
<g
   id="g52">
</g>
<g
   id="g54">
</g>
<g
   id="g56">
</g>
<g
   id="g58">
</g>
<g
   id="g60">
</g>
<g
   id="g62">
</g>
<g
   id="g64">
</g>
<g
   id="g66">
</g>
<g
   id="g68">
</g>
<g
   id="g70">
</g>
<g
   id="g72">
</g>
</svg>